<svg xmlns="http://www.w3.org/2000/svg" width="26.552" height="23.802" viewBox="0 0 26.552 23.802">
  <g id="Groupe_452" data-name="Groupe 452" transform="translate(-338.44 1179.502)">
    <g id="Groupe_405" data-name="Groupe 405" transform="translate(338.94 -1179)">
      <path id="Tracé_183" data-name="Tracé 183" d="M25.552,8.549a13.355,13.355,0,0,1-.365,1.649,11.836,11.836,0,0,1-2.541,4.185,48.8,48.8,0,0,1-4.728,4.457c-1.344,1.162-2.7,2.316-4.044,3.473a1.511,1.511,0,0,1-2.14.017C9.5,20.4,7.213,18.518,5.039,16.513a21.023,21.023,0,0,1-3.538-4A8.611,8.611,0,0,1,.03,7.008,7.55,7.55,0,0,1,3,1.369,6.652,6.652,0,0,1,6.788.014a6.715,6.715,0,0,1,5.8,2.78c.2.253.208.254.409,0A6.817,6.817,0,0,1,17.207.119a6.731,6.731,0,0,1,5.645,1.467,7.411,7.411,0,0,1,2.565,4.436c.052.26.09.522.135.783ZM7.156,1.544c-.124.011-.248.027-.372.032a4.855,4.855,0,0,0-2.466.773A6.05,6.05,0,0,0,1.557,7.731,7.073,7.073,0,0,0,2.893,11.81,21.793,21.793,0,0,0,6.5,15.751c2,1.8,4.067,3.523,6.1,5.287.153.133.236.13.387,0,1.744-1.513,3.5-3.012,5.241-4.526A27.707,27.707,0,0,0,22.3,12.358a7.47,7.47,0,0,0,1.7-5.1,6.228,6.228,0,0,0-1.48-3.829,5.232,5.232,0,0,0-4.99-1.793,5.058,5.058,0,0,0-2.967,1.7,10.66,10.66,0,0,0-.958,1.272.953.953,0,0,1-1.242.365,1.233,1.233,0,0,1-.486-.487,7.625,7.625,0,0,0-1.446-1.7A4.991,4.991,0,0,0,7.156,1.544" transform="translate(0 -0.001)" fill="#353c6f" stroke="#353c6f" stroke-width="1"/>
    </g>
  </g>
</svg>
