<svg xmlns="http://www.w3.org/2000/svg" width="21.843" height="20.724" viewBox="0 0 21.843 20.724">
  <g id="Groupe_395" data-name="Groupe 395" transform="translate(0 0)">
    <g id="Groupe_442" data-name="Groupe 442" transform="translate(0 0)">
      <path id="Tracé_182" data-name="Tracé 182" d="M0,7.878c.807-.075,1.614-.151,2.422-.223q1.4-.125,2.806-.244c.751-.064,1.5-.132,2.255-.182a.505.505,0,0,0,.508-.348C8.924,4.646,9.874,2.419,10.82.19c.019-.046.037-.093.061-.136.039-.073.084-.072.122,0,.023.044.041.091.061.136.945,2.229,1.895,4.456,2.83,6.689a.5.5,0,0,0,.486.348c1.291.1,2.58.22,3.87.33.907.077,1.815.15,2.722.226q.372.031.743.072c.045,0,.112-.011.127.052s-.043.086-.079.117q-.5.435-1,.868Q18.444,10.9,16.122,12.9a.4.4,0,0,0-.115.47q.774,3.305,1.543,6.612.063.27.125.541c.014.061.059.138,0,.181s-.131-.023-.188-.057q-1.3-.78-2.6-1.565c-1.238-.746-2.479-1.489-3.712-2.243a.4.4,0,0,0-.483.005q-3.087,1.873-6.182,3.732c-.043.026-.084.053-.129.076s-.117.1-.172.059-.017-.131,0-.2c.549-2.364,1.094-4.729,1.655-7.09a.532.532,0,0,0-.21-.613Q2.819,10.377,0,7.92V7.878" transform="translate(0 0)" fill="#353c6f"/>
    </g>
  </g>
</svg>
